<?xml version="1.0" standalone="no"?>
<!DOCTYPE svg PUBLIC "-//W3C//DTD SVG 20010904//EN"
 "http://www.w3.org/TR/2001/REC-SVG-20010904/DTD/svg10.dtd">
<svg version="1.0" xmlns="http://www.w3.org/2000/svg"
 width="794.000000pt" height="794.000000pt" viewBox="0 0 794.000000 794.000000"
 preserveAspectRatio="xMidYMid meet">

<g transform="translate(0.000000,794.000000) scale(0.100000,-0.100000)"
fill="#000000" stroke="none">
<path d="M3615 6563 c-427 -44 -758 -274 -948 -659 -82 -166 -126 -306 -181
-574 l-34 -165 -74 -5 c-87 -7 -125 -27 -192 -101 -91 -101 -132 -233 -123
-394 7 -117 29 -231 94 -484 33 -131 43 -186 35 -189 -16 -5 -15 -59 1 -66 8
-4 5 -10 -10 -22 -25 -18 -30 -53 -11 -72 9 -9 7 -16 -10 -32 -23 -22 -29 -56
-12 -62 7 -2 2 -45 -14 -118 -64 -295 -116 -561 -116 -588 0 -34 30 -76 72
-102 23 -13 45 -51 92 -151 l62 -132 167 -65 168 -66 -6 -37 c-9 -51 14 -102
54 -119 18 -7 28 -16 23 -19 -5 -3 -35 -45 -65 -92 l-56 -86 -48 4 c-39 4 -53
1 -75 -17 -24 -18 -28 -29 -28 -70 0 -27 5 -61 12 -74 9 -21 8 -29 -5 -44 -10
-10 -17 -26 -17 -35 0 -9 -27 -58 -60 -110 -49 -76 -60 -101 -60 -135 0 -31 4
-42 15 -42 21 0 19 -10 -7 -37 -19 -21 -20 -26 -9 -63 6 -22 13 -40 14 -40 1
0 157 -16 345 -34 303 -30 347 -37 365 -55 30 -27 70 -41 120 -41 64 0 85 9
107 45 l20 32 125 7 c69 3 181 9 249 12 l124 7 17 37 17 37 -58 87 c-33 50
-54 90 -48 95 5 4 73 21 152 37 l142 28 0 52 0 52 -72 24 -73 25 -6 69 c-4 38
-7 117 -8 175 l-1 107 56 7 c60 7 69 14 199 135 74 69 65 65 217 97 27 5 28 4
22 -26 -6 -26 -4 -31 14 -31 19 0 20 -8 26 -167 3 -93 8 -201 10 -241 l3 -74
-56 -40 c-73 -53 -125 -102 -167 -160 -19 -25 -54 -58 -78 -72 -50 -29 -71
-71 -56 -112 14 -36 52 -46 142 -38 l78 7 0 -57 0 -56 33 0 c17 0 182 -11 365
-25 184 -14 338 -22 343 -19 6 3 75 0 154 -6 166 -14 185 -10 237 49 l32 36
270 52 c149 29 277 52 284 53 7 0 12 15 12 42 0 44 -39 103 -323 486 -96 130
-100 134 -130 128 -18 -3 -59 -8 -92 -11 -33 -3 -75 -8 -94 -11 l-34 -6 31 37
c40 44 77 118 93 179 8 31 20 53 36 63 33 22 43 52 33 99 -11 48 -50 84 -93
84 -18 0 -39 6 -48 13 -19 14 -79 292 -79 364 0 45 -25 83 -54 83 -19 0 -14
-19 -101 400 -47 225 -74 377 -70 395 3 17 14 37 23 45 10 8 40 67 66 131 l47
116 -56 269 c-62 298 -88 407 -112 473 -27 70 -96 157 -152 189 l-51 28 -3
195 c-5 217 -24 321 -91 482 -64 154 -117 232 -248 364 -152 154 -299 242
-482 288 -90 23 -244 36 -321 28z m68 -49 c-18 -14 -33 -29 -33 -33 0 -4 44
-13 98 -19 155 -20 339 -70 496 -137 35 -15 38 -15 33 -1 -13 32 11 14 107
-81 111 -110 168 -185 220 -289 36 -73 89 -221 100 -283 l6 -35 -22 21 c-37
32 -178 123 -193 123 -10 0 -13 -26 -14 -106 -1 -58 -6 -139 -11 -181 -6 -42
-9 -77 -7 -78 1 -1 30 -18 65 -38 35 -20 65 -37 67 -37 9 0 105 -94 100 -98
-2 -3 -22 11 -43 30 -350 317 -1669 549 -2034 358 -28 -14 -36 -16 -32 -5 6
15 99 65 121 65 7 0 17 19 23 43 6 23 15 53 21 67 l9 25 -5 -25 c-19 -93 -19
-103 1 -96 33 10 165 25 225 26 l56 0 11 43 11 42 -5 -42 -6 -43 56 0 c52 0
56 2 62 28 4 15 19 74 35 131 16 58 29 106 29 108 0 2 -24 3 -54 3 -47 0 -56
-3 -61 -21 -4 -11 -9 -19 -11 -16 -3 2 0 16 5 31 10 25 13 26 93 26 101 0 300
-23 424 -48 l92 -19 9 31 c9 32 13 33 78 25 l30 -4 42 165 c49 188 49 220 0
220 -17 0 -38 7 -48 16 -26 24 -188 46 -348 48 l-144 1 -124 -168 c-69 -93
-122 -175 -119 -182 5 -13 -53 -25 -120 -25 -19 0 -34 -4 -34 -9 0 -5 -9 -7
-20 -4 -11 3 -32 1 -48 -5 -15 -6 -42 -14 -61 -17 l-33 -7 18 33 c11 18 66 81
124 139 116 117 207 180 342 235 80 33 88 35 216 35 131 0 133 0 174 30 50 37
76 40 31 4z m-86 -170 c9 -24 -10 -49 -37 -49 -27 0 -46 25 -37 49 4 10 18 16
37 16 19 0 33 -6 37 -16z m-77 -90 c0 -8 -7 -14 -15 -14 -15 0 -21 21 -9 33
10 9 24 -2 24 -19z m-477 -221 c-7 -2 -19 -2 -25 0 -7 3 -2 5 12 5 14 0 19 -2
13 -5z m17 -17 c0 -2 -13 -6 -29 -8 -17 -2 -28 -1 -25 4 5 8 54 12 54 4z m-91
-22 c4 3 8 -1 8 -8 0 -8 -6 -12 -14 -9 -7 3 -13 1 -13 -5 0 -6 6 -12 13 -15 6
-3 3 -5 -9 -4 -19 1 -20 4 -10 29 6 16 12 24 14 18 2 -5 7 -8 11 -6z m-148
-21 c-12 -20 -14 -14 -5 12 4 9 9 14 11 11 3 -2 0 -13 -6 -23z m229 2 c0 -18
-21 -28 -46 -23 -17 3 -17 4 0 21 22 21 46 22 46 2z m34 -89 c-3 -15 -8 -25
-11 -23 -2 3 -1 17 3 31 3 15 8 25 11 23 2 -3 1 -17 -3 -31z m-84 -12 c0 -2
-11 -3 -24 -2 -14 1 -23 5 -20 9 4 7 44 0 44 -7z m-70 -27 c0 -8 -3 -7 -9 2
-7 11 -10 9 -16 -8 -4 -13 -9 -20 -12 -18 -2 3 0 15 7 26 11 22 30 20 30 -2z
m76 -13 c-3 -9 -6 -20 -6 -25 0 -5 -13 -9 -30 -9 -16 0 -30 4 -30 9 0 27 15
41 42 41 23 0 29 -4 24 -16z m61 -6 c-3 -8 -6 -5 -6 6 -1 11 2 17 5 13 3 -3 4
-12 1 -19z m-152 -17 c-3 -6 -14 -10 -23 -10 -15 1 -15 2 1 6 9 2 17 9 17 15
0 6 3 9 6 5 3 -3 3 -10 -1 -16z m-88 -73 c-3 -8 -6 -5 -6 6 -1 11 2 17 5 13 3
-3 4 -12 1 -19z m593 -162 c276 -37 593 -112 807 -191 112 -42 317 -140 334
-161 19 -24 -161 -19 -209 5 -103 52 -414 145 -646 192 -264 53 -407 70 -636
76 -238 6 -352 -4 -462 -41 -72 -24 -77 -21 -58 28 15 40 124 87 245 105 91
15 481 6 625 -13z m1207 -143 c-3 -10 -5 -2 -5 17 0 19 2 27 5 18 2 -10 2 -26
0 -35z m-1029 -8 c17 -4 32 -8 32 -9 0 -6 -62 -318 -71 -358 -10 -44 -13 -48
-42 -49 l-32 -1 30 -7 c17 -4 29 -11 29 -17 -6 -46 -48 -251 -53 -256 -4 -4
-81 3 -171 16 -432 63 -758 59 -893 -11 -16 -8 -31 -12 -33 -10 -7 6 45 250
55 260 4 4 35 19 67 32 32 14 52 25 44 25 -8 0 -35 -9 -59 -20 -50 -23 -62
-25 -56 -7 3 6 23 97 44 201 21 103 44 193 51 200 12 11 12 9 -6 -83 l-5 -30
52 20 c154 59 493 64 818 13 105 -16 105 -17 115 49 8 51 14 59 34 53 10 -2
32 -7 50 -11z m467 -111 c108 -32 293 -99 303 -109 2 -2 -12 -10 -31 -18 -74
-32 -149 -120 -177 -212 -7 -22 -21 -59 -31 -82 -44 -97 -49 -226 -14 -310 9
-21 25 -90 36 -153 10 -63 22 -127 25 -141 4 -24 3 -26 -20 -22 -15 3 -26 3
-26 -1 0 -3 -29 -166 -65 -362 -36 -196 -65 -360 -65 -365 0 -4 17 -13 38 -19
21 -5 92 -37 158 -69 118 -60 133 -62 134 -22 0 35 73 391 80 391 9 0 30 -101
30 -143 0 -17 -14 -113 -32 -214 l-31 -183 -23 21 c-21 20 -22 20 -28 2 -8
-28 -96 -523 -96 -543 0 -9 9 -25 20 -35 11 -10 20 -30 19 -44 0 -29 -17 -75
-18 -52 -1 8 -13 27 -27 42 l-25 26 45 243 c25 134 46 251 46 261 0 14 -31 34
-122 78 -126 60 -224 98 -232 90 -3 -2 -26 -114 -51 -249 -26 -135 -48 -246
-49 -248 -2 -1 -24 6 -49 17 -153 66 -454 149 -649 181 -439 71 -932 78 -1044
16 l-44 -25 0 22 c0 12 4 27 8 34 12 19 75 42 135 49 30 4 59 9 65 13 8 5 85
352 79 357 -5 5 -123 -18 -157 -30 -48 -16 -47 -24 -19 117 20 99 24 109 51
123 27 14 41 38 15 28 -7 -2 -21 2 -32 10 -18 13 -17 14 17 12 20 0 34 2 32 6
-3 5 -15 8 -27 8 -18 0 -16 4 16 34 36 33 47 56 26 56 -5 0 -8 -4 -4 -9 5 -9
-40 -51 -55 -51 -4 0 -11 7 -14 16 -3 8 -2 13 3 9 15 -9 40 6 34 21 -3 8 1 14
8 14 12 0 12 2 0 9 -10 6 -6 13 18 27 17 10 31 21 31 25 0 4 3 14 6 23 5 12 0
16 -20 16 -14 0 -26 5 -26 10 0 6 5 10 10 10 17 0 60 47 60 65 0 10 -9 15 -27
15 -29 1 -28 3 20 35 8 6 18 20 22 33 5 18 2 22 -14 22 -31 0 -33 15 -4 31 25
13 45 47 36 62 -2 4 -13 7 -24 7 -10 0 -19 4 -19 9 0 40 48 70 143 91 31 7 61
18 66 24 5 6 18 63 30 126 13 63 25 125 28 138 4 19 1 22 -23 22 -16 0 -60
-11 -98 -25 -39 -13 -71 -23 -72 -22 -1 1 2 12 7 25 18 47 157 87 339 98 117
7 373 -13 602 -46 79 -12 152 -22 163 -23 17 -2 25 29 91 353 40 195 72 356
73 356 4 5 318 -72 416 -102z m552 49 c-3 -10 -5 -4 -5 12 0 17 2 24 5 18 2
-7 2 -21 0 -30z m-107 -182 c0 -4 -13 -14 -29 -24 -37 -22 -94 -99 -125 -168
-40 -93 -51 -156 -50 -294 0 -119 6 -157 63 -440 34 -170 64 -318 67 -327 5
-16 -3 -18 -63 -18 -40 0 -76 5 -85 13 -23 18 -116 494 -137 700 -17 170 17
351 85 448 33 48 109 97 165 107 58 10 109 12 109 3z m123 -10 c-54 -25 -127
-93 -160 -148 -46 -79 -65 -158 -70 -298 -6 -141 0 -178 98 -614 21 -96 39
-180 39 -187 0 -10 -13 -14 -43 -14 l-44 0 -61 308 c-34 169 -66 348 -71 397
-15 149 11 309 67 405 71 124 133 167 242 169 l45 1 -42 -19z m168 -17 c37
-19 95 -88 124 -149 30 -61 56 -165 125 -497 l53 -255 -38 -95 -37 -95 -54 36
-53 36 30 25 c16 14 29 35 29 48 0 24 10 28 27 11 7 -7 21 -4 47 11 20 12 36
24 36 26 0 10 -122 569 -125 572 -6 6 -66 -29 -71 -41 -2 -7 5 -57 16 -111 23
-113 24 -127 7 -106 -7 9 -25 26 -42 39 -29 22 -30 26 -30 99 -1 126 -54 202
-143 202 -88 0 -139 -92 -130 -237 4 -54 12 -93 28 -125 l23 -46 -21 -49 -21
-49 58 -282 c32 -155 55 -282 53 -282 -7 0 -132 70 -132 74 0 2 -14 64 -31
137 -105 461 -122 563 -115 679 10 173 48 273 136 362 81 81 172 103 251 62z
m-2461 -42 c-146 -112 -186 -218 -177 -467 4 -112 13 -171 41 -294 24 -104 33
-158 26 -165 -14 -14 -12 -63 3 -69 9 -4 8 -8 -3 -16 -8 -6 -18 -7 -22 -3 -9
9 -80 304 -103 427 -25 132 -17 298 18 383 53 129 151 220 247 231 3 0 -11
-12 -30 -27z m96 -24 c-5 -35 -17 -68 -38 -96 -48 -69 -60 -121 -64 -281 -4
-200 -58 -460 -89 -430 -2 3 -16 55 -30 115 -31 127 -44 354 -27 445 23 119
96 219 198 273 27 14 51 25 53 26 2 0 1 -24 -3 -52z m-56 -264 c-28 -133 -29
-136 -29 -77 -1 34 4 86 10 115 11 53 37 114 44 106 3 -2 -9 -67 -25 -144z
m2385 33 c42 -42 59 -103 51 -182 l-6 -61 37 -22 38 -22 -77 0 -76 0 -22 -35
c-20 -32 -56 -62 -65 -53 -2 2 9 19 25 38 36 42 60 109 60 165 0 56 -25 138
-50 160 -25 22 -25 32 -2 38 39 10 56 5 87 -26z m-88 -52 c11 -21 24 -57 27
-80 8 -52 -10 -137 -36 -170 -19 -24 -21 -25 -33 -9 -10 14 -8 23 12 53 21 31
24 45 21 98 -3 48 -9 68 -27 87 -16 17 -21 31 -16 46 9 29 26 21 52 -25z m339
-275 l56 -264 -22 -18 c-13 -10 -24 -17 -26 -15 -2 2 -19 80 -38 173 -19 93
-44 207 -55 254 -26 109 -26 125 2 137 12 6 23 8 24 4 1 -3 28 -125 59 -271z
m-899 148 c-2 -24 -4 -5 -4 42 0 47 2 66 4 43 2 -24 2 -62 0 -85z m-1591 -128
c-25 -123 -33 -139 -71 -140 -11 0 -46 -11 -77 -24 -42 -17 -58 -20 -58 -11 0
11 32 176 45 231 3 14 22 29 54 43 58 25 125 40 129 30 2 -4 -8 -62 -22 -129z
m2202 -155 c1 -1 13 -58 27 -126 21 -106 22 -125 10 -132 -8 -4 -15 -21 -15
-37 0 -23 -5 -31 -25 -36 -14 -3 -25 -7 -25 -8 0 -2 36 -182 80 -400 44 -219
80 -400 80 -402 0 -9 -59 -3 -65 6 -6 9 -115 522 -115 540 0 6 11 10 25 10 21
0 25 4 20 23 -10 44 -115 561 -115 568 0 6 109 1 118 -6z m-2398 -130 c0 -8
-11 -22 -25 -31 -24 -16 -45 -12 -45 7 0 6 4 8 8 5 4 -2 14 -1 22 5 13 7 13 9
0 9 -13 0 -13 1 0 10 22 14 40 12 40 -5z m1857 -32 c3 -7 1 -19 -5 -26 -5 -6
-36 -153 -67 -325 -44 -235 -55 -316 -47 -324 7 -7 14 -9 18 -5 3 3 30 133 60
289 30 156 55 285 55 288 1 3 4 -8 8 -25 4 -16 1 -61 -6 -100 -71 -375 -86
-469 -75 -473 6 -2 15 -4 19 -5 4 -1 25 97 48 217 23 121 44 213 47 205 2 -7
-12 -106 -33 -219 -21 -113 -36 -211 -34 -217 2 -7 11 -13 18 -13 11 0 23 45
47 168 38 199 41 214 47 209 2 -3 -12 -92 -32 -198 -29 -153 -33 -194 -23
-200 21 -14 25 -11 36 34 l11 42 -5 -48 c-5 -43 -3 -49 15 -54 12 -3 21 -14
21 -25 0 -17 -6 -16 -62 15 -35 19 -100 50 -145 68 -54 21 -83 38 -83 48 0 9
27 169 62 357 57 315 63 341 81 336 10 -3 21 -11 24 -19z m-1877 -68 c0 -13
-4 -14 -22 -4 -34 17 -34 19 -5 19 18 0 27 -5 27 -15z m-37 -18 c17 5 20 3 10
-7 -14 -15 -43 -6 -42 12 0 9 2 9 5 2 3 -7 15 -9 27 -7z m19 -72 c0 -5 -12
-19 -26 -30 -23 -17 -28 -18 -36 -5 -5 8 -9 20 -9 25 0 6 3 5 5 -1 7 -18 44
-5 37 13 -4 10 -1 14 11 12 9 -2 17 -8 18 -14z m-18 -97 c-3 -7 -16 -21 -29
-31 -23 -17 -25 -17 -34 1 -9 17 -7 19 17 15 26 -4 26 -4 8 11 -19 15 -18 16
12 16 21 0 30 -4 26 -12z m2326 -108 c33 -17 60 -31 60 -33 0 -4 -246 12 -278
18 -18 4 -37 16 -43 26 -9 18 -4 19 96 19 98 0 110 -2 165 -30z m-5 -64 c5 -1
18 -34 27 -72 16 -64 17 -56 1 39 -4 29 -2 37 10 37 17 0 12 20 77 -290 28
-135 67 -319 86 -409 27 -129 32 -166 22 -173 -9 -5 -15 0 -20 15 l-6 22 -1
-22 c-1 -19 -8 -23 -48 -26 -27 -2 -21 -2 12 -1 178 10 195 15 303 84 89 56
102 68 102 92 0 35 17 36 32 3 22 -48 -38 -101 -169 -148 -118 -43 -204 -55
-333 -48 -101 5 -112 8 -92 19 12 7 28 10 34 6 6 -4 8 -3 5 2 -6 10 -178 799
-185 849 l-4 31 69 -4 c37 -2 72 -4 78 -6z m325 -91 c-20 -24 -40 -18 -46 15
-9 42 -8 44 18 51 19 4 25 0 32 -23 6 -19 5 -32 -4 -43z m-2730 52 c24 6 27
-12 3 -21 -16 -7 -33 9 -32 29 0 6 3 5 5 -1 3 -7 14 -10 24 -7z m2127 -39 c-3
-8 -6 -5 -6 6 -1 11 2 17 5 13 3 -3 4 -12 1 -19z m-10 -50 c-3 -7 -5 -2 -5 12
0 14 2 19 5 13 2 -7 2 -19 0 -25z m633 -13 c0 -23 -6 -38 -16 -42 -19 -7 -29
4 -38 39 -5 20 -2 28 11 31 38 10 43 7 43 -28z m-643 -37 c-3 -8 -6 -5 -6 6
-1 11 2 17 5 13 3 -3 4 -12 1 -19z m672 -70 c6 -35 23 -128 37 -208 14 -80 27
-185 29 -235 l2 -90 -13 50 c-15 54 -124 522 -124 529 0 5 26 13 46 15 7 0 17
-26 23 -61z m-682 10 c-3 -7 -5 -2 -5 12 0 14 2 19 5 13 2 -7 2 -19 0 -25z
m248 -298 c59 -275 64 -306 50 -315 -47 -29 -46 -23 -16 -155 16 -69 28 -126
27 -128 -2 -1 -48 -9 -102 -17 -55 -8 -110 -17 -124 -20 -19 -3 -31 3 -48 26
l-24 29 77 438 c77 439 84 475 91 457 2 -5 33 -147 69 -315z m-208 258 c-3 -8
-6 -5 -6 6 -1 11 2 17 5 13 3 -3 4 -12 1 -19z m-2008 -15 c0 -5 -15 -77 -33
-162 l-32 -155 -82 -17 c-45 -10 -87 -21 -92 -24 -6 -3 -10 -1 -10 4 0 27 63
307 71 315 9 10 132 44 162 45 9 1 17 -2 16 -6z m1998 -45 c-3 -7 -5 -2 -5 12
0 14 2 19 5 13 2 -7 2 -19 0 -25z m-259 -154 c48 -20 118 -52 155 -72 55 -30
67 -40 63 -57 -2 -11 -23 -121 -47 -245 -23 -124 -43 -227 -45 -229 -2 -2 -63
26 -136 61 -73 36 -148 71 -166 78 -22 9 -31 18 -28 29 6 19 86 451 86 463 0
15 32 8 118 -28z m268 -316 c-26 -144 -49 -265 -51 -267 -11 -10 -34 24 -30
43 2 11 23 125 45 251 50 281 47 272 67 252 14 -14 11 -42 -31 -279z m565 107
c14 -71 24 -133 22 -137 -6 -11 -51 -10 -57 1 -7 11 -56 235 -56 256 0 12 8
15 33 13 l32 -3 26 -130z m-2066 -11 c369 -33 658 -100 974 -225 166 -67 396
-184 421 -216 38 -48 19 -93 -45 -109 l-30 -7 40 42 c24 26 35 44 30 50 -6 5
-134 62 -285 126 -151 64 -325 139 -387 166 -61 27 -120 49 -130 49 -10 0 -72
12 -138 26 -144 32 -183 38 -345 58 -417 49 -726 52 -755 7 -2 -5 24 -75 60
-155 37 -85 62 -154 58 -164 -5 -16 -5 -16 8 0 9 10 34 18 72 20 31 3 57 3 57
2 0 -1 2 -9 6 -17 5 -13 -20 -18 -146 -29 -8 -1 -21 -8 -28 -17 -10 -13 -10
-11 -2 12 14 38 12 47 -3 19 -12 -21 -17 -14 -77 117 -58 130 -68 160 -47 153
5 -1 6 8 2 20 -5 20 -5 21 5 5 7 -10 9 -25 6 -33 -3 -8 -3 -21 1 -30 5 -13 8
-13 15 -2 7 9 8 5 4 -12 -3 -14 -1 -32 4 -40 9 -13 10 -13 10 0 0 13 1 13 10
0 17 -26 11 -5 -20 70 -16 40 -27 76 -24 81 3 5 -2 9 -10 9 -8 0 -18 -5 -22
-12 -5 -7 -3 -8 6 -3 10 6 12 4 7 -9 -4 -10 -7 -21 -7 -26 0 -4 -9 -10 -21
-13 -18 -5 -19 -8 -9 -29 11 -21 10 -21 -16 4 -25 24 -26 30 -16 53 7 16 30
34 59 47 84 37 371 42 708 12z m-437 -36 c11 -32 12 -32 6 -3 -13 70 14 3 57
-138 41 -139 47 -152 70 -155 81 -8 109 -14 109 -23 0 -14 -127 -11 -134 4 -5
10 -7 10 -12 0 -11 -23 -32 -13 -43 20 -21 66 -91 310 -91 319 0 22 28 4 38
-24z m-12 -128 c23 -80 42 -146 41 -146 -1 -1 -26 -4 -55 -5 l-53 -4 -60 133
c-32 74 -59 138 -59 142 0 11 76 29 114 27 29 -2 30 -4 72 -147z m174 141 c23
-6 26 -15 42 -116 9 -61 19 -127 22 -147 l6 -38 -54 0 -55 0 -30 98 c-34 111
-61 204 -61 209 0 6 105 1 130 -6z m92 -3 c12 -9 22 -56 37 -159 12 -81 21
-152 21 -158 0 -7 4 -10 8 -7 12 7 293 -32 317 -44 21 -11 23 -11 -140 10 -38
5 -93 10 -122 10 -28 0 -54 4 -57 8 -3 5 -19 7 -36 4 -16 -2 -30 -2 -30 1 0 3
-11 77 -25 164 -30 189 -29 183 -7 183 10 0 25 -6 34 -12z m218 -18 c52 -5
124 -15 158 -21 l64 -12 -6 -31 c-2 -17 -12 -83 -22 -146 -9 -63 -18 -116 -19
-118 -5 -5 -310 39 -316 46 -4 4 -14 59 -23 122 -9 63 -19 127 -22 143 -5 26
-5 27 43 27 26 0 91 -5 143 -10z m285 -62 c-8 -49 -45 -292 -45 -300 0 -5 -11
-8 -25 -8 -16 0 -25 6 -25 15 0 20 40 296 45 313 3 6 16 12 30 12 24 0 25 -3
20 -32z m2079 -105 c14 -76 26 -160 26 -188 -1 -46 -2 -48 -15 -31 -8 10 -16
24 -18 30 -2 5 -37 -11 -78 -36 -71 -45 -75 -50 -102 -116 -25 -64 -33 -73
-102 -123 -76 -54 -104 -95 -89 -132 4 -12 1 -17 -13 -17 -11 0 -19 7 -19 18
0 9 -3 36 -7 60 l-7 42 39 0 c22 0 48 7 60 18 l22 17 -38 179 c-20 98 -39 174
-40 169 -2 -5 3 -39 11 -76 l14 -67 -62 0 c-69 0 -106 -22 -106 -63 0 -25 -25
-66 -34 -56 -6 6 -86 353 -86 373 0 8 34 9 117 5 65 -4 119 -7 120 -8 1 0 4
-11 6 -23 4 -22 4 -22 6 2 1 23 8 27 99 48 94 21 195 62 237 96 11 8 23 16 26
16 4 0 18 -62 33 -137z m-1934 96 c55 -12 100 -25 100 -30 0 -14 -91 -263
-100 -272 -7 -7 -155 25 -167 36 -2 3 5 69 18 146 15 100 25 141 35 141 7 0
58 -10 114 -21z m178 -33 c1 -2 -24 -77 -57 -167 -54 -152 -60 -164 -82 -161
-13 1 -27 6 -30 10 -4 4 21 80 54 170 59 160 61 163 86 157 14 -4 27 -8 29 -9z
m376 -170 c165 -70 303 -129 308 -132 8 -5 -206 -207 -225 -212 -10 -2 -534
202 -545 213 -1 1 20 64 48 141 27 76 50 140 50 141 0 2 15 -3 33 -10 17 -8
167 -71 331 -141z m-1094 -71 c289 -14 575 -88 965 -250 88 -37 168 -69 178
-72 24 -7 17 -25 -17 -41 -27 -14 -292 -20 -304 -8 -3 4 45 6 106 6 108 0 141
9 105 29 -10 5 -180 70 -378 144 l-360 135 -360 26 c-229 17 -362 23 -369 16
-6 -6 -1 -12 15 -18 13 -5 77 -29 142 -53 88 -33 117 -48 117 -61 0 -16 -4
-16 -52 3 -29 12 -100 39 -158 61 -58 23 -107 43 -109 45 -3 2 3 11 12 21 28
27 150 32 467 17z m463 -33 c38 -9 68 -22 68 -27 -1 -13 -4 -13 -93 9 -43 10
-78 22 -78 27 0 13 26 11 103 -9z m2181 -21 c9 -10 19 -34 22 -53 6 -31 2 -37
-48 -76 l-53 -41 -6 33 c-3 18 -15 46 -27 61 -30 38 -28 52 11 75 40 25 79 25
101 1z m-2467 -11 l65 0 -31 -29 c-26 -24 -31 -37 -31 -74 0 -38 5 -49 33 -74
21 -18 38 -46 46 -75 19 -68 67 -146 104 -168 l32 -20 -72 0 -73 0 -15 36
c-23 56 -18 61 22 23 27 -25 23 -17 -16 29 -29 34 -54 62 -56 62 -2 0 5 -33
16 -72 10 -40 19 -74 19 -75 0 -2 -8 -3 -18 -3 -11 0 -23 -10 -29 -22 -9 -20
-13 -13 -37 60 -27 79 -44 111 -30 55 7 -26 6 -27 -10 -14 -22 18 -50 74 -65
126 -10 35 -8 45 11 82 20 38 21 46 10 87 -16 61 -8 80 31 72 16 -3 59 -6 94
-6z m1237 -41 c-75 -79 -224 -210 -224 -196 0 16 240 240 248 232 3 -3 -8 -19
-24 -36z m135 -1 c-16 -29 -28 -20 -16 12 7 18 14 25 18 18 4 -7 3 -20 -2 -30z
m320 -19 c7 -34 11 -62 9 -64 -2 -2 -15 -6 -30 -10 -24 -6 -29 -3 -41 27 -8
18 -29 47 -47 63 l-32 30 34 6 c18 4 47 7 64 8 31 1 32 0 43 -60z m-1912 29
c25 -23 29 -57 12 -91 -16 -29 -28 -37 -61 -37 -50 0 -67 83 -26 127 27 29 45
29 75 1z m938 -86 c147 -59 271 -114 273 -121 6 -18 -2 -15 -173 57 -77 33
-194 79 -260 102 -66 24 -122 45 -124 46 -3 3 8 24 12 24 2 0 124 -48 272
-108z m820 78 c38 -18 96 -93 82 -106 -7 -8 -223 7 -238 16 -19 12 20 72 61
92 44 22 45 22 95 -2z m-1409 -23 c19 -39 7 -78 -31 -103 -23 -15 -27 -15 -50
0 -33 22 -42 60 -22 102 14 29 22 34 52 34 30 0 38 -5 51 -33z m1762 26 c-10
-2 -26 -2 -35 0 -10 3 -2 5 17 5 19 0 27 -2 18 -5z m-2051 -11 c24 -15 26 -60
4 -97 -12 -20 -21 -43 -21 -51 0 -12 -5 -12 -32 2 -27 14 -29 18 -15 26 27 14
50 67 43 99 -6 29 0 35 21 21z m378 -31 c47 -21 66 -36 70 -53 8 -33 -9 -74
-40 -94 -24 -16 -28 -15 -85 6 -33 12 -60 24 -60 26 0 2 12 15 26 29 22 22 25
33 22 71 -2 24 -2 44 0 44 1 0 31 -13 67 -29z m1651 19 c30 0 31 -2 43 -67 7
-38 14 -77 17 -88 5 -20 1 -21 -67 -17 l-72 4 6 -46 c4 -25 9 -57 13 -71 6
-24 4 -25 -27 -19 -19 4 -37 9 -40 13 -4 3 -12 35 -18 71 -6 36 -14 77 -17 91
-4 22 -1 28 21 33 27 7 65 59 65 90 0 14 5 17 23 12 12 -3 36 -6 53 -6z
m-1512 -38 c54 -22 103 -47 108 -56 6 -10 11 -40 12 -66 1 -39 -4 -54 -23 -74
-14 -14 -31 -26 -40 -26 -8 0 -50 14 -92 32 l-78 32 30 33 c23 27 29 43 29 79
0 38 -4 46 -25 56 -14 6 -25 15 -25 20 0 11 -8 13 104 -30z m-584 -122 c0 -42
-59 -54 -84 -18 -9 12 -16 37 -16 54 l0 32 50 -27 c27 -14 50 -33 50 -41z
m2181 43 c-8 -15 -10 -15 -11 -2 0 17 10 32 18 25 2 -3 -1 -13 -7 -23z m-449
11 c6 -6 -20 -81 -35 -101 -5 -7 -20 -13 -33 -13 -23 0 -24 3 -24 60 l0 60 43
0 c24 0 46 -3 49 -6z m186 -130 c2 -107 -1 -137 -17 -179 l-19 -49 -6 104
c-13 230 -13 249 4 253 32 9 35 -1 38 -129z m732 125 c0 -17 -67 -152 -87
-175 -32 -36 -69 -54 -132 -65 -50 -8 -67 -7 -92 7 -17 8 -27 19 -23 24 17 16
319 219 327 220 4 0 7 -5 7 -11z m-876 -36 c-13 -31 -15 -65 -9 -215 5 -114 4
-178 -2 -178 -10 0 -23 157 -23 271 0 32 -4 60 -9 64 -6 3 -3 24 6 50 10 32
20 45 33 45 18 0 18 -2 4 -37z m76 -17 c0 -56 -8 -66 -51 -66 -29 0 -33 24
-14 75 14 36 23 45 41 45 22 0 24 -4 24 -54z m525 48 c20 -8 45 -56 45 -88 0
-20 -13 -34 -59 -66 -33 -22 -62 -40 -65 -40 -4 0 -6 16 -6 36 0 27 -7 43 -29
63 l-30 28 47 36 c47 36 67 42 97 31z m-1565 -54 c37 -19 40 -24 40 -61 0 -29
-7 -47 -25 -64 -13 -14 -29 -25 -34 -25 -13 0 -121 40 -121 45 0 2 11 16 25
31 19 20 25 38 25 70 0 42 1 43 25 34 13 -5 42 -19 65 -30z m1381 17 c-10 -9
-11 -8 -5 6 3 10 9 15 12 12 3 -3 0 -11 -7 -18z m-2156 -7 c3 -5 1 -10 -4 -10
-6 0 -11 5 -11 10 0 6 2 10 4 10 3 0 8 -4 11 -10z m470 -65 c77 -31 142 -59
144 -61 7 -7 -42 -55 -71 -70 -61 -32 -148 -9 -192 49 -25 33 -66 124 -66 147
0 11 -4 13 185 -65z m-445 20 c0 -8 -6 -15 -14 -15 -7 0 -29 -3 -47 -6 l-34
-5 40 20 c50 24 55 25 55 6z m2192 -22 c23 -20 24 -85 2 -107 -36 -36 -94 -1
-94 56 0 58 52 87 92 51z m-528 -120 c4 -71 8 -143 9 -162 1 -19 -3 -36 -9
-38 -11 -4 -39 301 -28 318 16 26 23 -3 28 -118z m-1636 90 c7 -11 5 -28 -5
-51 -19 -47 -94 -132 -115 -132 -14 0 -11 14 22 92 34 82 51 104 82 107 4 1
11 -6 16 -16z m1583 15 c1 -2 7 -73 13 -158 12 -155 10 -169 -21 -170 -10 0
-13 30 -13 119 0 65 -3 139 -6 165 -6 38 -4 46 10 46 9 0 17 -1 17 -2z m143
-15 c2 -10 7 -70 11 -133 3 -63 8 -123 11 -132 4 -14 -1 -18 -19 -18 -23 0
-24 3 -31 92 -10 151 -8 208 8 208 8 0 17 -8 20 -17z m39 -5 c7 -29 11 -257 5
-264 -3 -2 -8 44 -12 103 -4 59 -10 125 -13 146 -6 40 11 53 20 15z m-1882
-92 c-36 -88 -38 -96 -20 -96 19 0 26 -15 11 -24 -12 -7 -85 20 -96 36 -12 19
88 171 117 179 12 3 23 5 25 3 2 -1 -15 -45 -37 -98z m1077 69 c1 -1 5 -80 8
-176 8 -225 11 -221 -178 -263 -25 -6 -33 3 -143 165 -64 93 -126 174 -138
179 -12 5 -16 9 -10 9 7 1 31 17 53 37 l40 36 40 -16 c61 -24 95 -21 122 12
22 27 24 28 113 24 49 -2 91 -5 93 -7z m925 -30 c12 -3 57 -6 99 -8 51 -2 84
-9 95 -19 30 -25 52 -29 89 -13 19 8 41 12 49 9 24 -10 7 -24 -28 -24 -66 0
-71 -5 -112 -116 l-38 -104 -38 0 c-22 0 -39 4 -39 8 0 8 50 159 65 195 6 15
0 17 -53 17 -33 0 -74 3 -91 6 -30 6 -31 9 -30 53 1 25 4 36 6 24 3 -13 14
-25 26 -28z m-1805 -32 c2 0 9 -27 17 -59 12 -53 12 -60 -8 -101 -19 -39 -24
-43 -59 -43 -36 0 -37 1 -28 24 5 13 23 52 39 85 17 33 31 63 31 66 0 2 -18 8
-41 11 -32 5 -39 10 -33 23 3 9 9 24 11 34 5 16 9 15 37 -10 17 -15 32 -29 34
-30z m2665 -50 c106 -140 349 -485 344 -489 -6 -6 -949 -176 -953 -171 -3 2
41 431 62 608 l6 56 222 25 c121 14 233 26 248 27 22 1 35 -10 71 -56z m-2713
2 c0 -7 -282 -609 -291 -620 -8 -11 -232 5 -244 17 -3 3 102 141 234 307 220
274 244 301 271 301 17 0 30 -2 30 -5z m1960 -4 c0 -15 -62 -185 -71 -195 -5
-5 -33 3 -67 19 l-60 28 18 51 c40 115 31 106 110 106 38 0 70 -4 70 -9z m161
-328 c-19 -181 -35 -329 -37 -331 -3 -4 -642 37 -673 44 -34 7 -24 12 53 24
92 14 114 31 183 139 1 2 24 -2 52 -9 63 -15 86 -44 70 -90 -6 -17 -8 -34 -5
-38 4 -4 32 -7 63 -7 l56 0 111 298 c105 282 112 297 136 297 l25 0 -34 -327z
m-1914 295 c-3 -13 -25 -156 -48 -318 -22 -162 -45 -299 -49 -304 -7 -7 -260
11 -269 20 -2 2 47 110 109 241 62 131 128 271 147 311 l34 72 40 0 c38 0 41
-2 36 -22z m331 -60 c29 -43 51 -78 49 -78 -3 0 -28 32 -56 70 l-51 70 -103 0
c-69 0 -109 -4 -121 -13 -14 -11 -23 -56 -47 -242 -16 -127 -26 -242 -23 -257
3 -15 18 -37 32 -49 26 -20 34 -21 222 -15 406 13 417 19 316 170 -41 62 -68
113 -48 91 5 -5 50 -71 100 -146 l90 -136 -111 -6 c-254 -14 -648 -29 -652
-25 -3 2 16 143 40 314 25 170 45 315 45 322 0 10 30 12 132 10 l133 -3 53
-77z m-26 -3 l38 -50 -103 -5 c-112 -6 -132 -14 -173 -73 -37 -55 -48 -116
-41 -234 3 -58 9 -108 12 -111 6 -6 494 13 501 20 2 3 0 29 -6 58 -6 29 -8 55
-6 57 8 8 56 -83 56 -105 0 -12 -8 -25 -17 -31 -16 -8 -190 -17 -446 -24 -83
-2 -90 0 -108 22 -11 13 -19 39 -19 60 0 40 47 429 55 448 4 12 90 21 180 19
35 -1 43 -6 77 -51z m-722 -30 c-7 -8 -20 -15 -29 -14 -11 0 -9 3 7 9 12 5 22
15 22 21 0 7 3 9 6 6 4 -4 1 -13 -6 -22z m-51 -16 c22 -29 22 -31 5 -50 -17
-19 -18 -19 -50 12 -27 26 -31 36 -23 51 15 27 42 22 68 -13z m659 -37 c-33
-21 -59 -54 -86 -108 -23 -45 -51 -147 -53 -190 -1 -22 -3 -19 -11 16 -29 140
49 300 147 300 l30 0 -27 -18z m187 -17 c43 -32 75 -81 102 -155 21 -58 48
-178 42 -184 -6 -5 -452 -25 -460 -21 -9 6 9 123 31 195 52 174 178 247 285
165z m-565 18 c0 -5 -45 -102 -100 -218 l-100 -210 -35 -3 c-19 -2 -35 1 -35
6 0 5 27 67 61 138 34 71 78 166 99 212 38 80 39 82 74 82 20 0 36 -3 36 -7z
m1973 -38 c-1 -5 -31 -88 -65 -182 l-63 -173 -37 0 c-32 0 -35 3 -31 21 4 15
11 19 25 15 25 -6 68 34 68 64 0 11 -9 29 -21 41 -19 19 -19 23 -6 62 11 35
18 41 36 39 30 -5 61 25 61 56 0 14 -10 36 -22 50 l-23 23 40 -3 c22 -2 39 -7
38 -13z m-93 -43 c-9 -15 -23 -28 -33 -28 -12 -1 -13 0 -3 3 17 5 31 40 27 63
-2 12 0 13 11 2 10 -10 10 -17 -2 -40z m-240 -32 c0 -38 -4 -70 -9 -70 -9 0
-24 118 -15 131 15 25 24 2 24 -61z m36 48 c-3 -13 -6 -29 -6 -35 0 -7 -4 -13
-10 -13 -5 0 -10 16 -10 35 0 26 4 35 16 35 12 0 15 -6 10 -22z m93 -2 c15 -8
36 -27 45 -41 14 -22 15 -31 4 -66 -15 -53 -37 -61 -103 -36 l-52 19 25 69
c26 73 34 79 81 55z m153 -41 c-7 -15 -20 -25 -33 -25 -11 0 -19 3 -17 8 3 4
10 22 17 40 12 30 15 32 29 18 13 -12 13 -20 4 -41z m-323 -17 c-1 -47 -3 -57
-9 -38 -12 36 -12 100 0 100 6 0 10 -27 9 -62z m-30 -25 c1 -29 -2 -33 -24
-33 -23 0 -25 4 -25 45 0 31 5 47 18 54 19 11 29 -10 31 -66z m-578 55 c22 -6
39 -14 39 -18 0 -3 -39 -14 -87 -23 -49 -9 -99 -19 -113 -22 -14 -3 -3 3 24
13 27 10 56 28 65 40 19 25 22 26 72 10z m-1401 -82 c0 -6 -19 -33 -43 -59
-36 -42 -47 -48 -73 -45 l-32 3 50 78 51 78 23 -22 c13 -12 24 -27 24 -33z
m1480 21 l0 -33 -146 -29 -147 -29 -19 23 c-10 13 -16 26 -14 29 4 3 259 60
319 71 4 0 7 -14 7 -32z m420 3 c0 -16 -4 -30 -9 -30 -5 0 -24 -3 -42 -6 l-34
-7 34 37 c42 44 51 45 51 6z m324 -106 c8 -22 -20 -64 -42 -63 -12 0 -10 3 7
10 19 7 22 15 19 39 -5 32 6 41 16 14z m36 -33 c0 -20 -19 -41 -37 -41 -11 0
-10 6 2 30 9 17 13 36 8 43 -4 8 -1 7 10 -2 9 -7 17 -21 17 -30z m-390 20 c0
-11 -74 -41 -102 -41 -42 0 3 22 100 49 1 1 2 -3 2 -8z m105 -1 c11 -18 -43
-23 -60 -6 -15 15 -14 16 19 16 19 0 38 -4 41 -10z m-2093 -52 c-19 -20 -24
-21 -32 -8 -16 25 -12 30 22 30 l32 0 -22 -22z m3576 -43 c-2 -1 -88 -19 -193
-38 -267 -50 -715 -136 -748 -143 -26 -5 -28 -4 -25 22 l3 29 425 76 c595 106
534 97 538 76 2 -10 2 -20 0 -22z m-3298 -100 c162 -14 305 -28 318 -31 14 -3
22 -12 22 -25 0 -20 -4 -21 -47 -16 -27 4 -172 18 -323 33 -252 25 -289 32
-290 57 0 10 -13 10 320 -18z m1990 -8 l315 -22 3 -27 c4 -34 37 -33 -318 -8
-384 28 -370 26 -370 56 0 29 -36 29 370 1z m-867 -6 c-6 -24 -27 -26 -358
-41 -126 -5 -269 -13 -317 -16 -85 -6 -88 -5 -88 15 0 12 1 21 3 22 1 0 171 9
377 18 206 10 378 19 382 20 3 0 4 -8 1 -18z m1572 -57 c-27 -21 -40 -24 -119
-24 -49 0 -86 3 -82 8 9 8 219 50 226 44 3 -2 -8 -15 -25 -28z m-2115 -49
c-18 -22 -128 -20 -160 3 -25 17 -24 17 70 22 52 3 97 1 98 -3 2 -4 -2 -14 -8
-22z"/>
<path d="M3246 5992 c-9 -16 -66 -255 -61 -261 2 -4 30 -8 62 -10 67 -2 212
-17 298 -31 33 -5 62 -6 66 -2 9 9 63 252 58 257 -6 6 -208 34 -289 40 -41 3
-87 8 -102 10 -15 2 -29 1 -32 -3z"/>
<path d="M3833 5980 c-57 -12 -78 -24 -110 -67 -23 -30 -28 -47 -28 -93 0 -47
5 -63 29 -94 37 -49 86 -69 152 -64 64 5 110 37 135 92 25 55 24 83 -6 143
-39 78 -86 101 -172 83z m85 -111 c-2 -6 -8 -10 -13 -10 -5 0 -11 4 -13 10 -2
6 4 11 13 11 9 0 15 -5 13 -11z"/>
<path d="M4036 5803 c-11 -82 -20 -163 -20 -181 l-1 -33 104 -35 c57 -19 108
-31 111 -27 10 11 29 144 36 261 l7 98 -104 32 c-57 18 -106 32 -109 32 -3 0
-14 -66 -24 -147z"/>
<path d="M4287 5863 c-4 -3 -7 -34 -7 -67 0 -34 -5 -101 -12 -151 -19 -147
-26 -132 80 -177 51 -22 95 -39 97 -37 8 8 25 203 25 282 l0 84 -80 37 c-83
38 -92 40 -103 29z"/>
<path d="M2776 5275 l-7 -28 -77 5 c-70 5 -82 3 -133 -22 -55 -28 -56 -29 -66
-87 -6 -32 -10 -59 -9 -60 6 -7 123 20 136 32 8 7 29 15 46 18 18 3 44 9 59
13 24 6 26 4 21 -12 -5 -18 2 -19 147 -19 135 0 222 -1 442 -6 33 -1 73 -2 89
-3 29 -1 31 2 42 57 6 31 9 59 5 61 -3 2 -33 7 -66 11 -33 3 -85 18 -115 31
-52 24 -68 26 -281 31 l-226 6 -7 -28z"/>
<path d="M2783 5063 c48 -2 126 -2 175 0 48 1 8 3 -88 3 -96 0 -136 -2 -87 -3z"/>
<path d="M2643 5053 c9 -2 23 -2 30 0 6 3 -1 5 -18 5 -16 0 -22 -2 -12 -5z"/>
<path d="M3093 5053 c15 -2 37 -2 50 0 12 2 0 4 -28 4 -27 0 -38 -2 -22 -4z"/>
<path d="M2588 5043 c6 -2 18 -2 25 0 6 3 1 5 -13 5 -14 0 -19 -2 -12 -5z"/>
<path d="M3198 5043 c12 -2 32 -2 45 0 12 2 2 4 -23 4 -25 0 -35 -2 -22 -4z"/>
<path d="M3288 5033 c12 -2 30 -2 40 0 9 3 -1 5 -23 4 -22 0 -30 -2 -17 -4z"/>
<path d="M3368 5023 c12 -2 30 -2 40 0 9 3 -1 5 -23 4 -22 0 -30 -2 -17 -4z"/>
<path d="M2660 5006 c-85 -10 -100 -15 -135 -43 -22 -18 -45 -33 -53 -33 -14
0 -26 -27 -36 -81 l-6 -36 72 2 c40 1 127 8 192 14 66 7 140 11 165 9 42 -3
46 -1 49 20 3 20 8 23 28 18 13 -4 45 -9 72 -13 26 -3 63 -14 82 -23 25 -12
73 -19 172 -23 l137 -7 6 48 c4 26 7 53 8 60 2 18 -251 82 -279 71 -10 -4 -58
-8 -106 -8 -82 -1 -88 0 -88 19 0 19 -6 20 -92 19 -51 -1 -136 -6 -188 -13z"/>
<path d="M3443 5013 c9 -2 23 -2 30 0 6 3 -1 5 -18 5 -16 0 -22 -2 -12 -5z"/>
<path d="M3691 5218 c-6 -29 -24 -123 -40 -208 -17 -85 -44 -225 -60 -310 -33
-173 -166 -863 -183 -953 -6 -32 -9 -59 -7 -61 6 -7 360 -88 363 -85 3 4 235
1237 272 1449 8 47 17 93 20 102 7 23 -12 30 -186 74 -74 19 -143 37 -152 40
-13 4 -19 -6 -27 -48z m188 -8 c85 -22 156 -42 159 -45 3 -2 0 -30 -6 -62 -6
-32 -50 -267 -97 -523 -150 -815 -180 -965 -192 -963 -6 1 -83 19 -172 40
-148 34 -160 38 -156 57 3 12 41 210 85 441 78 409 151 788 191 989 10 54 19
100 19 102 0 7 13 4 169 -36z"/>
<path d="M2630 4711 l-34 -6 -86 -425 c-48 -234 -90 -439 -93 -456 l-6 -32
177 -4 c97 -2 178 -4 179 -3 3 2 183 909 183 923 0 13 -252 15 -320 3z m211
-60 c25 -25 29 -37 29 -83 0 -71 -25 -173 -55 -224 -29 -49 -63 -64 -142 -64
-47 0 -59 4 -84 29 -36 36 -37 71 -9 189 36 150 66 182 167 182 58 0 68 -3 94
-29z m-89 -442 c30 -30 31 -32 25 -107 -6 -100 -32 -186 -65 -223 -19 -21 -42
-32 -79 -39 -29 -5 -58 -8 -65 -6 -7 3 -26 7 -41 11 -39 8 -60 60 -52 123 19
133 59 233 105 258 14 7 51 13 83 14 52 0 62 -3 89 -31z"/>
<path d="M2672 4658 c-39 -19 -87 -143 -92 -238 -6 -105 12 -130 90 -130 96 0
134 30 164 130 36 120 31 203 -13 237 -20 15 -118 16 -149 1z m168 -90 c0 -16
-10 -18 -81 -18 -70 0 -80 2 -69 14 10 13 50 20 128 22 15 0 22 -6 22 -18z m0
-50 c0 -44 -12 -49 -101 -46 l-84 3 45 33 c35 26 54 32 92 32 43 0 48 -2 48
-22z m-17 -64 c3 -3 0 -22 -7 -42 l-13 -37 -79 4 c-43 1 -80 4 -81 5 -1 0 21
18 49 39 37 27 60 37 88 37 20 0 39 -3 43 -6z"/>
<path d="M2588 4214 c-74 -39 -131 -291 -78 -344 16 -16 33 -20 86 -20 61 0
68 2 99 33 39 39 64 112 72 214 6 70 5 72 -25 102 -26 26 -38 31 -79 31 -26
-1 -60 -8 -75 -16z m11 -208 c-30 -117 -49 -157 -49 -103 0 62 61 249 77 233
2 -2 -11 -60 -28 -130z m139 97 c-10 -2 -28 -2 -40 0 -13 2 -5 4 17 4 22 1 32
-1 23 -4z m-10 -70 c-10 -2 -28 -2 -40 0 -13 2 -5 4 17 4 22 1 32 -1 23 -4z
m-10 -60 c-10 -2 -28 -2 -40 0 -13 2 -5 4 17 4 22 1 32 -1 23 -4z m-30 -70
c-10 -2 -28 -2 -40 0 -13 2 -5 4 17 4 22 1 32 -1 23 -4z"/>
<path d="M2996 4693 c-12 -42 -167 -845 -169 -879 l-2 -37 140 -18 c77 -10
181 -25 231 -34 50 -8 98 -15 106 -15 11 0 19 25 31 88 8 48 48 251 87 452 39
200 69 371 68 379 -4 18 -56 28 -296 60 -186 25 -189 25 -196 4z m199 -18
c131 -16 273 -40 279 -46 3 -2 -13 -94 -34 -204 -22 -110 -60 -310 -86 -445
-26 -135 -49 -248 -53 -252 -3 -3 -42 0 -86 8 -44 8 -147 23 -229 34 -82 11
-151 21 -152 23 -2 1 1 21 6 42 6 22 44 216 85 430 42 215 79 400 82 413 4 19
10 22 37 17 17 -3 85 -12 151 -20z"/>
<path d="M2405 4306 l-40 -12 -52 -264 c-29 -145 -52 -265 -50 -266 1 -1 29 4
62 10 l60 12 52 245 c28 134 52 254 52 267 1 26 -20 28 -84 8z m21 -253 c-27
-136 -51 -250 -52 -252 -4 -5 -88 -20 -92 -16 -3 3 83 448 94 486 4 14 79 40
94 33 3 -1 -16 -114 -44 -251z"/>
<path d="M2419 3734 c-10 -3 -20 -26 -27 -68 -20 -105 -36 -96 162 -96 l175 0
16 76 c10 41 14 78 11 81 -7 8 -315 14 -337 7z m321 -34 c0 -11 -5 -42 -11
-71 -11 -50 -12 -51 -41 -45 -17 3 -90 6 -163 6 l-132 0 11 63 11 62 75 5 c41
3 114 4 163 2 77 -3 87 -5 87 -22z"/>
<path d="M2280 3717 c-60 -13 -58 -10 -74 -128 l-7 -46 57 10 c43 8 58 16 64
33 9 24 25 145 19 143 -2 0 -29 -6 -59 -12z m47 -29 c-4 -13 -9 -42 -13 -66
-7 -44 -5 -42 -78 -57 -17 -3 -18 1 -11 53 8 64 16 79 48 85 52 10 59 8 54
-15z"/>
<path d="M2866 3644 c-9 -42 -14 -79 -12 -82 3 -2 80 -15 172 -29 93 -13 185
-28 207 -32 35 -8 39 -7 47 14 16 41 24 145 11 145 -6 0 -78 11 -159 24 -81
14 -170 28 -198 31 l-51 6 -17 -77z m249 30 c88 -14 163 -29 168 -33 5 -6 -10
-117 -18 -128 -1 -2 -69 8 -151 21 -82 14 -170 28 -196 31 -53 7 -54 8 -36 84
14 62 8 62 233 25z"/>
<path d="M3381 3578 c-21 -111 -38 -95 159 -144 96 -24 180 -43 186 -44 9 0
39 148 31 157 -7 6 -325 83 -346 83 -16 0 -22 -10 -30 -52z m194 2 c72 -17
138 -34 149 -37 16 -4 18 -12 11 -66 -3 -34 -8 -64 -10 -67 -2 -3 -70 11 -152
32 -81 20 -158 37 -170 38 -26 0 -27 6 -12 83 10 50 14 56 33 52 11 -2 80 -18
151 -35z"/>
<path d="M2395 3528 c-7 -20 -74 -342 -72 -344 1 -1 67 -3 147 -5 l144 -4 8
40 c4 22 19 100 33 174 14 73 25 137 25 142 0 15 -280 11 -285 -3z m174 -22
c9 -11 5 -16 -20 -26 -16 -7 -46 -33 -65 -58 -30 -40 -34 -52 -34 -108 0 -34
5 -75 10 -90 10 -26 10 -26 -12 -12 -80 52 -74 209 11 281 36 30 91 36 110 13z
m47 -61 c28 -69 10 -151 -46 -207 -38 -38 -72 -48 -86 -26 -4 6 -10 28 -14 49
l-7 37 32 -5 c26 -4 36 -1 49 18 27 39 15 109 -19 109 -22 0 -18 13 8 30 56
38 65 37 83 -5z m-88 -47 c25 -25 5 -98 -27 -98 -31 0 -42 68 -15 94 19 19 26
20 42 4z"/>
<path d="M2767 3523 c-8 -14 -70 -353 -65 -358 2 -2 48 -10 102 -16 78 -10 99
-10 105 0 12 19 73 340 67 350 -3 5 -41 12 -83 16 -43 3 -88 9 -99 12 -12 2
-24 1 -27 -4z m170 -29 l29 -6 -32 -165 c-18 -91 -34 -167 -37 -169 -7 -7
-182 21 -181 29 0 4 14 80 30 168 l29 161 66 -6 c36 -3 79 -9 96 -12z"/>
<path d="M3009 3319 c-18 -96 -34 -178 -34 -184 0 -10 122 -32 130 -23 5 5 65
323 65 344 0 15 -18 22 -78 30 l-48 6 -35 -173z m147 138 c1 -1 -12 -78 -29
-170 l-31 -168 -45 7 c-25 3 -50 10 -54 14 -7 6 42 282 58 326 2 8 17 9 51 3
26 -5 48 -10 50 -12z"/>
<path d="M3235 3448 c-7 -21 -55 -314 -55 -336 0 -16 10 -22 50 -31 28 -6 57
-11 63 -11 9 0 24 58 46 168 18 92 33 173 34 181 1 10 -17 19 -58 27 -76 16
-75 16 -80 2z m123 -23 c4 -3 -54 -305 -63 -331 -3 -9 -17 -9 -52 -2 -26 6
-49 12 -51 13 -3 3 46 301 54 323 3 11 17 12 57 7 28 -4 54 -9 55 -10z"/>
<path d="M3509 3354 l-56 -35 -18 -98 -18 -97 38 -57 c33 -50 44 -59 89 -72
104 -32 130 -31 179 5 44 31 45 34 62 121 20 100 18 116 -23 180 -28 43 -34
47 -98 63 -38 9 -76 19 -84 21 -8 2 -40 -12 -71 -31z m98 -90 c-3 -3 -12 -4
-19 -1 -8 3 -5 6 6 6 11 1 17 -2 13 -5z m48 -75 c5 -23 2 -38 -13 -58 -44 -59
-133 -14 -117 59 15 69 115 69 130 -1z m-72 -109 c29 -7 30 -8 6 -9 -15 -1
-35 7 -46 17 -10 9 -13 13 -6 8 7 -5 28 -12 46 -16z"/>
<path d="M4478 4559 c-42 -22 -43 -25 -27 -101 16 -83 14 -81 64 -50 44 25 46
29 41 62 -9 54 -26 110 -34 110 -4 -1 -24 -10 -44 -21z"/>
<path d="M4545 4348 c-67 -36 -64 -29 -48 -110 8 -40 17 -75 18 -76 2 -2 24 9
50 24 38 22 46 31 41 48 -3 12 -11 45 -17 74 -13 56 -14 57 -44 40z"/>
<path d="M4642 3645 c0 -11 4 -31 8 -45 6 -20 8 -21 8 -5 0 11 -4 31 -8 45 -6
20 -8 21 -8 5z"/>
<path d="M4662 3550 c0 -14 2 -19 5 -12 2 6 2 18 0 25 -3 6 -5 1 -5 -13z"/>
<path d="M4671 3504 c0 -11 3 -14 6 -6 3 7 2 16 -1 19 -3 4 -6 -2 -5 -13z"/>
<path d="M4682 3460 c0 -14 2 -19 5 -12 2 6 2 18 0 25 -3 6 -5 1 -5 -13z"/>
<path d="M4692 3415 c0 -11 6 -42 13 -70 7 -27 13 -41 13 -30 0 11 -6 43 -13
70 -7 28 -13 41 -13 30z"/>
<path d="M4722 3275 c0 -11 4 -31 8 -45 6 -20 8 -21 8 -5 0 11 -4 31 -8 45 -6
20 -8 21 -8 5z"/>
<path d="M4742 3185 c0 -11 6 -42 13 -70 7 -27 13 -41 13 -30 0 11 -6 43 -13
70 -7 28 -13 41 -13 30z"/>
<path d="M4772 3045 c0 -11 4 -31 8 -45 6 -20 8 -21 8 -5 0 11 -4 31 -8 45 -6
20 -8 21 -8 5z"/>
<path d="M2181 2885 c0 -5 6 -21 13 -34 11 -20 14 -21 19 -6 4 9 3 24 -3 33
-8 14 -9 14 -10 2 0 -13 -1 -13 -10 0 -5 8 -10 11 -9 5z"/>
<path d="M2217 2826 c-4 -10 0 -29 8 -44 8 -15 14 -20 15 -12 0 13 1 13 10 0
17 -26 10 3 -9 39 -14 27 -19 30 -24 17z m23 -41 c0 -5 -5 -3 -10 5 -5 8 -10
20 -10 25 0 6 5 3 10 -5 5 -8 10 -19 10 -25z"/>
<path d="M2402 3010 c0 -8 6 -31 13 -50 7 -19 13 -28 13 -20 0 8 -6 31 -13 50
-7 19 -13 28 -13 20z"/>
<path d="M2431 2910 c0 -8 4 -24 9 -35 5 -13 9 -14 9 -5 0 8 -4 24 -9 35 -5
13 -9 14 -9 5z"/>
<path d="M2452 2840 c0 -8 6 -31 13 -50 7 -19 13 -28 13 -20 0 8 -6 31 -13 50
-7 19 -13 28 -13 20z"/>
<path d="M2642 3030 c0 -14 2 -19 5 -12 2 6 2 18 0 25 -3 6 -5 1 -5 -13z"/>
<path d="M2653 2965 c0 -22 2 -30 4 -17 2 12 2 30 0 40 -3 9 -5 -1 -4 -23z"/>
<path d="M2662 2900 c0 -14 2 -19 5 -12 2 6 2 18 0 25 -3 6 -5 1 -5 -13z"/>
<path d="M2672 2830 c0 -19 2 -27 5 -17 2 9 2 25 0 35 -3 9 -5 1 -5 -18z"/>
<path d="M2682 2770 c0 -14 2 -19 5 -12 2 6 2 18 0 25 -3 6 -5 1 -5 -13z"/>
<path d="M4832 2810 c0 -14 2 -19 5 -12 2 6 2 18 0 25 -3 6 -5 1 -5 -13z"/>
<path d="M5220 2194 c-195 -29 -197 -30 -210 -54 -11 -20 -60 -425 -60 -496 0
-45 22 -74 57 -74 56 0 760 122 780 136 43 28 47 21 -163 315 -73 103 -141
189 -149 193 -27 10 -92 5 -255 -20z m263 -6 c25 -25 286 -389 306 -427 24
-44 5 -50 -361 -111 -441 -73 -422 -71 -448 -53 -19 14 -21 22 -16 72 37 354
48 439 56 457 9 23 9 23 260 63 159 25 177 25 203 -1z"/>
<path d="M5252 2083 c-69 -34 -112 -125 -112 -236 0 -84 19 -187 36 -194 25
-9 454 69 454 83 0 27 -30 154 -46 195 -26 65 -63 117 -98 138 -46 28 -190 36
-234 14z m66 -21 c-59 -39 -100 -116 -132 -250 l-23 -97 -7 70 c-16 167 50
295 154 295 l35 0 -27 -18z m149 1 c61 -28 125 -158 139 -279 l6 -49 -213 -37
c-118 -20 -216 -34 -218 -32 -9 8 28 191 49 248 36 94 112 164 178 166 13 0
40 -8 59 -17z"/>
</g>
</svg>
